<svg width="47" height="59" viewBox="0 0 47 59" fill="none" xmlns="http://www.w3.org/2000/svg">
<path fill-rule="evenodd" clip-rule="evenodd" d="M29.7756 5.49417C29.7756 8.52852 32.2354 10.9883 35.2697 10.9883C38.3041 10.9883 40.7639 8.52852 40.7639 5.49417C40.7639 2.45983 38.3041 0 35.2697 0C32.2354 0 29.7756 2.45983 29.7756 5.49417ZM16.0253 28.0135C14.7668 30.1621 7.28017 42.891 0.732797 52.6632C-1.95387 56.1192 3.4138 60.2489 6.09703 56.7997C8.67661 53.4831 11.2575 48.9016 13.8385 44.3197C15.6564 41.0926 17.4743 37.8653 19.2922 35.0795C19.5566 35.7338 20.0331 36.3276 20.7899 36.7585C24.0055 38.5869 26.8199 41.0353 29.2067 43.8497C28.6347 46.1152 28.0623 48.3799 27.4899 50.6443C27.1099 52.1476 26.7299 53.6506 26.3502 55.1537C25.2799 59.3941 31.9492 60.5909 33.0105 56.3779C34.0113 52.4249 35.0099 48.4741 36.0094 44.5165C36.0972 44.1699 36.1166 43.8508 36.1075 43.543C36.3515 42.7189 36.2272 41.7819 35.5023 40.8712C32.9045 37.6054 29.9397 34.7751 26.5463 32.435C28.0897 29.4349 29.7003 26.4758 31.3497 23.5349C34.0729 27.3067 37.6646 30.1724 42.6652 31.636C46.6422 32.7987 48.3292 26.6126 44.3693 25.4544C39.3106 23.9726 36.2956 20.4219 34.196 15.8749C33.5371 12.7096 29.8975 10.5187 26.7925 11.3497C26.7553 11.3497 26.7198 11.3476 26.6842 11.3455C26.6282 11.3423 26.5723 11.3391 26.5109 11.344C22.7028 11.6389 18.8947 11.9348 15.0856 12.2307L14.1889 12.3003C11.1403 12.537 9.39373 16.7323 8.05749 19.942C7.70157 20.7969 7.37473 21.5818 7.06022 22.2036C5.19654 25.883 10.7261 29.1294 12.5943 25.4396C13.0833 24.4745 13.5718 23.5089 14.0603 22.5432C14.7309 21.2176 15.4016 19.8917 16.0743 18.5662C16.4596 18.5363 16.845 18.5065 17.2308 18.4766C18.5375 18.3753 19.8464 18.2739 21.1524 18.1718C19.5566 21.034 17.9927 23.9156 16.4972 26.8302C16.2897 27.2281 16.1393 27.6236 16.0253 28.0135Z" fill="white"/>
</svg>
