<svg width="12" height="12" viewBox="0 0 12 12" fill="none" xmlns="http://www.w3.org/2000/svg">
<g clip-path="url(#clip0_1_243)">
<path d="M3 7.50003C2.585 7.50003 2.21 7.67003 1.94 7.94003C1.35 8.53003 1 11 1 11C1 11 3.47 10.65 4.06 10.06C4.33 9.79003 4.5 9.41503 4.5 9.00003C4.5 8.17003 3.83 7.50003 3 7.50003ZM3.355 9.35503C3.215 9.49503 2.27 9.73503 2.27 9.73503C2.27 9.73503 2.505 8.79503 2.65 8.65003C2.735 8.55503 2.86 8.50003 3 8.50003C3.275 8.50003 3.5 8.72503 3.5 9.00003C3.5 9.14003 3.445 9.26503 3.355 9.35503ZM8.71 6.82503C11.89 3.64503 10.83 1.17003 10.83 1.17003C10.83 1.17003 8.355 0.110027 5.175 3.29003L3.93 3.04003C3.605 2.97503 3.265 3.08003 3.025 3.31503L1 5.34503L3.5 6.41503L5.585 8.50003L6.655 11L8.68 8.97503C8.915 8.74003 9.02 8.40003 8.955 8.07003L8.71 6.82503ZM3.705 5.41503L2.75 5.00503L3.735 4.02003L4.455 4.16503C4.17 4.58003 3.915 5.01503 3.705 5.41503ZM6.995 9.25003L6.585 8.29503C6.985 8.08503 7.42 7.83003 7.83 7.54503L7.975 8.26503L6.995 9.25003ZM8 6.12003C7.34 6.78003 6.31 7.32003 5.98 7.48503L4.515 6.02003C4.675 5.69503 5.215 4.66503 5.88 4.00003C8.22 1.66003 9.995 2.00503 9.995 2.00503C9.995 2.00503 10.34 3.78003 8 6.12003ZM7.5 5.50003C8.05 5.50003 8.5 5.05003 8.5 4.50003C8.5 3.95003 8.05 3.50003 7.5 3.50003C6.95 3.50003 6.5 3.95003 6.5 4.50003C6.5 5.05003 6.95 5.50003 7.5 5.50003Z" fill="#636AE8"/>
</g>
<defs>
<clipPath id="clip0_1_243">
<rect width="12" height="12" fill="white"/>
</clipPath>
</defs>
</svg>
