<svg width="58" height="55" viewBox="0 0 58 55" fill="none" xmlns="http://www.w3.org/2000/svg">
<path d="M57.9931 43.4211C57.9931 46.492 56.7711 49.4371 54.5959 51.6087C52.4208 53.7801 49.4706 55 46.3944 55H37.6954C34.6192 55 31.6691 53.7801 29.4938 51.6087C27.3187 49.4371 26.0967 46.492 26.0967 43.4211V39.5323C26.0967 38.4826 26.9491 37.6316 28.0007 37.6316H44.6875C45.3671 37.6316 45.9951 37.27 46.3354 36.6828L52.8363 25.4668C53.3624 24.559 54.5257 24.2483 55.4356 24.7723L56.4414 25.3515C57.4342 25.9233 57.6995 27.235 57.0068 28.1467L52.1163 34.5822C51.1652 35.8339 52.0594 37.6316 53.6332 37.6316H56.0892C57.1407 37.6316 57.9931 38.4826 57.9931 39.5323V43.4211ZM20.297 53.0994C20.2976 54.1491 19.445 55 18.3934 55H1.90357C0.85205 55 -0.000618443 54.1491 3.36572e-07 53.0994C0.0047221 45.0462 0.0694273 36.9622 0.956519 28.4553C1.70774 21.4281 3.01957 14.1078 4.45656 6.72441C4.55086 6.23992 4.17938 5.78945 3.68498 5.78945C3.25106 5.78945 2.89931 5.43832 2.89931 5.00514V1.9007C2.89931 0.85097 3.75173 0 4.80324 0H15.4937C16.5453 0 17.3977 0.85097 17.3977 1.9007V5.00514C17.3977 5.43832 17.0459 5.78945 16.612 5.78945C16.1176 5.78945 15.7461 6.23992 15.8404 6.72441C17.2774 14.1078 18.5892 21.4281 19.3404 28.4553C20.2276 36.9622 20.2923 45.0462 20.297 53.0994Z" fill="white"/>
</svg>
