<svg width="36" height="36" viewBox="0 0 36 36" fill="none" xmlns="http://www.w3.org/2000/svg">
<rect width="36" height="36" stroke="#BCC1CA"/>
<path fill-rule="evenodd" clip-rule="evenodd" d="M1.32164 23.3097L1.14157 23.1043L1.4135 22.8349C2.04499 22.2616 2.57784 21.6778 3.19048 21.2423C3.19048 21.2423 3.20179 21.2352 3.22442 21.2145C9.62765 16.6846 15.0923 18.8375 17.3942 20.1757C17.4093 20.1797 17.4206 20.1868 17.4244 20.1907C17.4281 20.1947 17.4281 20.1947 17.432 20.1986C18.1831 20.6089 18.5979 20.9207 18.5979 20.9207L16.4941 23.1371L12.7225 27.0954C12.2585 27.5815 11.7349 27.9624 11.1751 28.2364C11.1705 28.2364 11.1675 28.2403 11.1637 28.2403C9.12293 29.2491 6.61428 28.8642 4.92878 27.0954L1.32164 23.3097Z" fill="#373FFE"/>
<path d="M34.6602 24.1411C34.509 24.9411 34.1945 25.7065 33.717 26.3705C33.7169 26.3744 33.7128 26.3782 33.7087 26.382C33.7046 26.3858 33.7015 26.3896 33.6983 26.3934C33.6953 26.3973 33.6921 26.4011 33.688 26.4048C33.4731 26.7004 33.2274 26.9801 32.9472 27.2393C31.7745 28.3198 30.266 28.8338 28.7707 28.7898C27.2778 28.7459 25.8029 28.1443 24.6957 26.9967L20.8019 22.9579C20.5278 22.7148 20.2678 22.4551 20.0077 22.1953C19.4878 21.676 18.9677 21.1565 18.3342 20.7687L18.3291 20.7654C18.3106 20.7533 18.2896 20.7397 18.268 20.7287C18.2177 20.6995 18.1665 20.6693 18.1135 20.638C18.0591 20.6059 18.0028 20.5727 17.9437 20.5383H17.9398C17.935 20.5343 17.935 20.5343 17.9319 20.5343V20.5303C17.9279 20.5263 17.9161 20.5183 17.9003 20.5143C17.5059 20.2928 17.0246 20.0504 16.466 19.8208C16.3722 19.7808 16.2783 19.7416 16.1805 19.7064C16.0971 19.6723 16.011 19.6418 15.9248 19.6112C15.9098 19.6059 15.8948 19.6006 15.8799 19.5952C15.356 19.4049 14.7777 19.2305 14.1521 19.1001C14.0464 19.0721 13.9407 19.0521 13.8318 19.0329C13.6243 18.9889 13.4136 18.9569 13.1943 18.9257C12.9987 18.8977 12.7999 18.8745 12.5963 18.8577C12.5222 18.8457 12.448 18.8417 12.3738 18.8386C12.2524 18.8265 12.1316 18.8185 12.0062 18.8145C10.7786 18.7545 9.43037 18.8665 7.99211 19.2505C7.84382 19.2897 7.69155 19.3337 7.53848 19.3808C7.1677 19.492 6.79214 19.6232 6.41266 19.7736C6.3038 19.8168 6.19811 19.8608 6.09238 19.908C6.0786 19.9139 6.06477 19.9198 6.05093 19.9256C5.95177 19.9678 5.85208 20.0102 5.75233 20.0544C5.72694 20.0661 5.7015 20.0777 5.67606 20.0894C5.5884 20.1296 5.50037 20.17 5.41234 20.2127C5.3817 20.2278 5.35086 20.2429 5.3199 20.258C5.23599 20.2989 5.15132 20.3401 5.06834 20.3839C4.42773 20.7087 3.77449 21.0934 3.11416 21.5414C3.10757 21.5454 3.1022 21.5497 3.0967 21.554C3.09232 21.5575 3.08785 21.5611 3.0826 21.5646C3.05972 21.5846 3.04789 21.5926 3.04789 21.5926C2.78201 21.7709 2.51615 21.9653 2.24633 22.1717C1.9494 22.3989 1.69181 22.6261 1.40881 22.8758C1.32714 22.9478 1.24335 23.0217 1.15589 23.0981C1.00527 23.2693 1.67594 22.4797 1.67594 22.4797L8.47261 15.5885L8.48443 15.5733L8.93805 15.1126L13.3703 10.6228C13.3703 10.6228 13.3742 10.6188 13.386 10.6075C13.39 10.5995 13.3979 10.5916 13.4018 10.5876L15.0507 8.91896C15.5825 8.37985 16.1923 7.96788 16.8455 7.68634C18.948 6.76324 21.4805 7.17601 23.2004 8.91896L29.472 15.2783L30.8075 16.5555L33.1643 18.9426C34.4983 20.3264 34.9974 22.3037 34.6661 24.1096C34.6642 24.1201 34.6622 24.1307 34.6602 24.1411Z" fill="#5686FF"/>
<path d="M27.3626 27.6699C31.081 25.8319 32.3612 20.9165 30.2222 16.691C29.8234 15.9032 29.3339 15.195 28.7772 14.576L33.2521 19.056C35.1854 21.0376 35.3651 24.2514 33.8048 26.3957C33.8046 26.3996 33.8005 26.4034 33.7964 26.4071C33.7923 26.4108 33.7892 26.4146 33.7861 26.4184C33.783 26.4221 33.7798 26.426 33.7758 26.4297C33.5608 26.7217 33.3151 26.9981 33.0349 27.2542C31.8623 28.322 30.3538 28.8298 28.8584 28.7864C27.9539 28.7601 27.0559 28.5315 26.2423 28.1031C26.6234 27.9941 26.9979 27.8501 27.3626 27.6699Z" fill="#92B1FF"/>
</svg>
