<svg width="51" height="51" viewBox="0 0 51 51" fill="none" xmlns="http://www.w3.org/2000/svg">
<path d="M14.4766 1.8915C14.4766 1.38983 14.2777 0.908732 13.9235 0.554C13.5695 0.199279 13.0892 0 12.5883 0C12.0875 0 11.6073 0.199279 11.2531 0.554C10.899 0.908732 10.7 1.38983 10.7 1.8915V5.87625C7.07454 6.16632 4.69786 6.87752 2.95056 8.63027C1.20076 10.3806 0.490768 12.7639 0.198718 16.393H50.155C49.8629 12.7613 49.1529 10.3806 47.4031 8.63027C45.6558 6.87752 43.2766 6.16632 39.6536 5.8737V1.8915C39.6536 1.38983 39.4547 0.908732 39.1006 0.554C38.7464 0.199279 38.2661 0 37.7654 0C37.2646 0 36.7842 0.199279 36.4302 0.554C36.076 0.908732 35.8771 1.38983 35.8771 1.8915V5.70725C34.2028 5.67453 32.3246 5.67453 30.2123 5.67453H20.1414C18.0291 5.67453 16.1509 5.67453 14.4766 5.70725V1.8915Z" fill="white"/>
<path fill-rule="evenodd" clip-rule="evenodd" d="M0 25.78C0 23.6641 -1.30136e-07 21.7826 0.0327237 20.1055H50.3213C50.354 21.7826 50.354 23.6641 50.354 25.78V30.824C50.354 40.3344 50.354 45.091 47.4033 48.0442C44.455 51 39.7067 51 30.2124 51H20.1416C10.6473 51 5.89897 51 2.95074 48.0442C0 45.091 0 40.3344 0 30.824V25.78ZM37.7655 30.824C38.4332 30.824 39.0736 30.5583 39.5458 30.0854C40.018 29.6124 40.2833 28.9709 40.2833 28.302C40.2833 27.6331 40.018 26.9916 39.5458 26.5187C39.0736 26.0458 38.4332 25.78 37.7655 25.78C37.0978 25.78 36.4574 26.0458 35.9853 26.5187C35.5131 26.9916 35.2478 27.6331 35.2478 28.302C35.2478 28.9709 35.5131 29.6124 35.9853 30.0854C36.4574 30.5583 37.0978 30.824 37.7655 30.824ZM37.7655 40.912C38.4332 40.912 39.0736 40.6463 39.5458 40.1734C40.018 39.7004 40.2833 39.0589 40.2833 38.39C40.2833 37.7211 40.018 37.0796 39.5458 36.6067C39.0736 36.1337 38.4332 35.868 37.7655 35.868C37.0978 35.868 36.4574 36.1337 35.9853 36.6067C35.5131 37.0796 35.2478 37.7211 35.2478 38.39C35.2478 39.0589 35.5131 39.7004 35.9853 40.1734C36.4574 40.6463 37.0978 40.912 37.7655 40.912ZM27.6947 28.302C27.6947 28.9709 27.4295 29.6124 26.9573 30.0854C26.4851 30.5583 25.8447 30.824 25.177 30.824C24.5093 30.824 23.8689 30.5583 23.3968 30.0854C22.9246 29.6124 22.6593 28.9709 22.6593 28.302C22.6593 27.6331 22.9246 26.9916 23.3968 26.5187C23.8689 26.0458 24.5093 25.78 25.177 25.78C25.8447 25.78 26.4851 26.0458 26.9573 26.5187C27.4295 26.9916 27.6947 27.6331 27.6947 28.302ZM27.6947 38.39C27.6947 39.0589 27.4295 39.7004 26.9573 40.1734C26.4851 40.6463 25.8447 40.912 25.177 40.912C24.5093 40.912 23.8689 40.6463 23.3968 40.1734C22.9246 39.7004 22.6593 39.0589 22.6593 38.39C22.6593 37.7211 22.9246 37.0796 23.3968 36.6067C23.8689 36.1337 24.5093 35.868 25.177 35.868C25.8447 35.868 26.4851 36.1337 26.9573 36.6067C27.4295 37.0796 27.6947 37.7211 27.6947 38.39ZM12.5885 30.824C13.2563 30.824 13.8967 30.5583 14.3688 30.0854C14.841 29.6124 15.1062 28.9709 15.1062 28.302C15.1062 27.6331 14.841 26.9916 14.3688 26.5187C13.8967 26.0458 13.2563 25.78 12.5885 25.78C11.9208 25.78 11.2804 26.0458 10.8082 26.5187C10.336 26.9916 10.0708 27.6331 10.0708 28.302C10.0708 28.9709 10.336 29.6124 10.8082 30.0854C11.2804 30.5583 11.9208 30.824 12.5885 30.824ZM12.5885 40.912C13.2563 40.912 13.8967 40.6463 14.3688 40.1734C14.841 39.7004 15.1062 39.0589 15.1062 38.39C15.1062 37.7211 14.841 37.0796 14.3688 36.6067C13.8967 36.1337 13.2563 35.868 12.5885 35.868C11.9208 35.868 11.2804 36.1337 10.8082 36.6067C10.336 37.0796 10.0708 37.7211 10.0708 38.39C10.0708 39.0589 10.336 39.7004 10.8082 40.1734C11.2804 40.6463 11.9208 40.912 12.5885 40.912Z" fill="white"/>
</svg>
