<svg width="53" height="51" viewBox="0 0 53 51" fill="none" xmlns="http://www.w3.org/2000/svg">
<path fill-rule="evenodd" clip-rule="evenodd" d="M38.691 1.92015H36.1948C35.7148 1.92015 35.2347 1.53612 35.2347 0.960074C35.2347 0.384025 35.6187 0 36.1948 0H40.9952C41.3792 0 41.6672 0.192008 41.8593 0.576041C42.0513 0.960074 41.9553 1.3441 41.6672 1.63213L38.499 4.80035H40.9952C41.5713 4.80035 41.9553 5.18443 41.9553 5.76047C41.9553 6.33651 41.5713 6.72051 40.9952 6.72051H36.1948C35.8108 6.72051 35.5228 6.52847 35.3308 6.14447C35.1387 5.76047 35.2347 5.37639 35.5228 5.08841L38.691 1.92015ZM13.7291 2.11217C11.8089 5.76047 10.6568 9.9848 10.6568 14.4011C10.6568 28.7063 22.2738 40.3231 36.4828 40.3231C40.9952 40.3231 45.1235 39.171 48.7718 37.2509C44.3555 45.3155 35.8108 50.884 25.9221 50.884C11.6169 50.884 0 39.2671 0 24.962C0 15.0732 5.5684 6.52847 13.7291 2.11217ZM52.036 19.8735H45.6996L52.7081 12.865C52.9962 12.5769 53.0921 12.1929 52.9001 11.8089C52.7081 11.4249 52.4201 11.2329 52.036 11.2329H43.3954C42.8194 11.2329 42.4353 11.6169 42.4353 12.1929C42.4353 12.769 42.8194 13.153 43.3954 13.153H49.7319L42.7234 20.1616C42.4353 20.4496 42.3393 20.8336 42.5313 21.2176C42.7234 21.6016 43.0113 21.7937 43.3954 21.7937H52.036C52.6121 21.7937 52.9962 21.4097 52.9962 20.8336C52.9962 20.2576 52.5161 19.8735 52.036 19.8735ZM31.1063 18.4335H27.6501C27.1701 18.4335 26.6901 18.0494 26.6901 17.4733C26.6901 16.8973 27.0741 16.5133 27.6501 16.5133H33.4106C33.7946 16.5133 34.0826 16.7053 34.2746 17.0893C34.4667 17.4733 34.3706 17.8574 34.0826 18.1454L29.9543 22.2737H33.4106C33.9866 22.2737 34.3706 22.6578 34.3706 23.2338C34.3706 23.8099 33.9866 24.1939 33.4106 24.1939H27.6501C27.2661 24.1939 26.978 24.0018 26.7861 23.6178C26.594 23.2338 26.6901 22.8497 26.978 22.5618L31.1063 18.4335Z" fill="white"/>
</svg>
